<?xml version="1.0" encoding="UTF-8" standalone="no"?>
<!-- Generator: Adobe Illustrator 16.0.0, SVG Export Plug-In . SVG Version: 6.00 Build 0)  -->

<svg
   version="1.1"
   id="Layer_1"
   x="0px"
   y="0px"
   width="97px"
   height="97px"
   viewBox="0 0 97 97"
   enable-background="new 0 0 97 97"
   xml:space="preserve"
   sodipodi:docname="sc-actions-git-status-unknown.svg"
   inkscape:version="1.1.2 (0a00cf5339, 2022-02-04)"
   inkscape:export-filename="/home/hamed/dev/kde-git/icons/48-apps-kde_actions.png"
   inkscape:export-xdpi="50.150002"
   inkscape:export-ydpi="50.150002"
   xmlns:inkscape="http://www.inkscape.org/namespaces/inkscape"
   xmlns:sodipodi="http://sodipodi.sourceforge.net/DTD/sodipodi-0.dtd"
   xmlns="http://www.w3.org/2000/svg"
   xmlns:svg="http://www.w3.org/2000/svg"
   xmlns:rdf="http://www.w3.org/1999/02/22-rdf-syntax-ns#"
   xmlns:cc="http://creativecommons.org/ns#"
   xmlns:dc="http://purl.org/dc/elements/1.1/"><metadata
   id="metadata842"><rdf:RDF><cc:Work
       rdf:about=""><dc:format>image/svg+xml</dc:format><dc:type
         rdf:resource="http://purl.org/dc/dcmitype/StillImage" /><dc:title /></cc:Work></rdf:RDF></metadata><defs
   id="defs840" /><sodipodi:namedview
   pagecolor="#ffffff"
   bordercolor="#666666"
   borderopacity="1"
   objecttolerance="10"
   gridtolerance="10"
   guidetolerance="10"
   inkscape:pageopacity="0"
   inkscape:pageshadow="2"
   inkscape:window-width="1516"
   inkscape:window-height="871"
   id="namedview838"
   showgrid="false"
   inkscape:zoom="5.6568542"
   inkscape:cx="25.013903"
   inkscape:cy="48.083262"
   inkscape:window-x="1599"
   inkscape:window-y="0"
   inkscape:window-maximized="1"
   inkscape:current-layer="Layer_1"
   showguides="true"
   inkscape:guide-bbox="true"
   inkscape:pagecheckerboard="0"><sodipodi:guide
     position="48.260038,17.67767"
     orientation="1,0"
     id="guide837"
     inkscape:locked="false" /><sodipodi:guide
     position="64.877047,48.790368"
     orientation="0,1"
     id="guide839"
     inkscape:locked="false" /></sodipodi:namedview>
<g
   id="g835"
   style="fill:#f1a13d;fill-opacity:1">
	<path
   style="fill:#000000;fill-opacity:1"
   d="m 48.408203,2.5585938 c -1.5145,0 -3.029547,0.5769218 -4.185547,1.7324218 C 30.484131,18.025547 16.125907,32.385105 4.2871094,44.222656 c -2.311,2.313 -2.311,6.060094 0,8.371094 L 44.408203,92.710938 c 2.31,2.311 6.056141,2.310999 8.369141,0 L 92.710938,52.779297 c 2.310998,-2.311 2.310998,-6.060094 0,-8.371094 L 52.591797,4.2910156 c -1.155,-1.1555 -2.669094,-1.732422 -4.183594,-1.7324218 z"
   id="path819" /><path
   style="fill:#ffffff;fill-opacity:1;stroke-width:0.878581"
   d="m 47.58539,26.517409 c 4.466119,0 7.87062,0.915189 10.213502,2.745565 2.342883,1.812073 3.514324,4.466119 3.514324,7.962139 0,1.79377 -0.356924,3.404501 -1.070771,4.832195 -0.713847,1.409391 -1.931047,2.928603 -3.651601,4.557638 l -1.757162,1.564973 c -1.244657,1.134833 -2.059174,2.050021 -2.443553,2.745565 -0.384379,0.677239 -0.576569,1.427694 -0.576569,2.251363 v 1.235504 h -9.91149 v -1.345326 c 0,-1.500909 0.302012,-2.827933 0.906036,-3.98107 0.604025,-1.171441 1.876137,-2.654046 3.816336,-4.447816 l 1.757162,-1.592427 c 1.043315,-0.951796 1.802921,-1.848681 2.278819,-2.690654 0.494202,-0.841973 0.741302,-1.683947 0.741302,-2.52592 0,-1.281264 -0.43929,-2.278819 -1.317871,-2.992666 -0.878581,-0.732151 -2.104933,-1.098226 -3.679057,-1.098226 -1.482605,0 -3.084185,0.311164 -4.804739,0.933492 -1.720554,0.604024 -3.514324,1.510061 -5.381308,2.718109 v -8.621074 c 2.214756,-0.768759 4.237323,-1.336175 6.067699,-1.702251 1.830377,-0.366075 3.59669,-0.549113 5.298941,-0.549113 z"
   id="path817" /><path
   style="fill:#ffffff;fill-opacity:1;stroke-width:0.878581"
   d="m 41.90207,58.475788 h 9.91149 V 68.25 h -9.91149 z"
   id="path833" /><path
   style="fill:#ffffff;fill-opacity:1;stroke-width:0.684489"
   d="m 71.783151,33.550731 c 3.479488,0 6.131884,0.71301 7.95719,2.139029 1.825305,1.41176 2.737958,3.479488 2.737958,6.203186 0,1.397499 -0.278074,2.652396 -0.834222,3.764692 -0.556148,1.098035 -1.504451,2.281631 -2.844909,3.550789 l -1.368979,1.219246 c -0.969694,0.884133 -1.604272,1.597142 -1.903736,2.13903 -0.299464,0.527627 -0.449196,1.112295 -0.449196,1.754004 V 55.28327 H 67.35536 v -1.048124 c 0,-1.169336 0.235293,-2.2032 0.70588,-3.101593 0.470586,-0.912652 1.46167,-2.067728 2.973251,-3.465228 l 1.368979,-1.240637 c 0.812831,-0.74153 1.404629,-1.44028 1.775394,-2.096249 0.385025,-0.655968 0.577538,-1.311938 0.577538,-1.967907 0,-0.998213 -0.342245,-1.775394 -1.026734,-2.331542 -0.68449,-0.570408 -1.639922,-0.855612 -2.8663,-0.855612 -1.155076,0 -2.402843,0.242424 -3.743301,0.72727 -1.340458,0.470587 -2.737958,1.176467 -4.192498,2.11764 v -6.716553 c 1.725484,-0.598928 3.301236,-1.040994 4.727255,-1.326198 1.42602,-0.285205 2.802129,-0.427806 4.128327,-0.427806 z"
   id="path817-3" /><path
   style="fill:#ffffff;fill-opacity:1;stroke-width:0.684489"
   d="m 67.35536,58.449034 h 7.721897 v 7.614945 H 67.35536 Z"
   id="path833-6" /><path
   style="fill:#ffffff;fill-opacity:1;stroke-width:0.684489"
   d="m 25.992483,35.069736 c 3.479488,0 6.131884,0.71301 7.95719,2.139029 1.825305,1.41176 2.737958,3.479488 2.737958,6.203186 0,1.397499 -0.278074,2.652396 -0.834222,3.764692 -0.556148,1.098035 -1.504451,2.281631 -2.844909,3.550789 l -1.368979,1.219246 c -0.969694,0.884133 -1.604272,1.597142 -1.903736,2.13903 -0.299464,0.527627 -0.449196,1.112295 -0.449196,1.754004 v 0.962563 h -7.721897 v -1.048124 c 0,-1.169336 0.235293,-2.2032 0.70588,-3.101593 0.470586,-0.912652 1.46167,-2.067728 2.973251,-3.465228 l 1.368979,-1.240637 c 0.812831,-0.74153 1.404629,-1.44028 1.775394,-2.096249 0.385025,-0.655968 0.577538,-1.311938 0.577538,-1.967907 0,-0.998213 -0.342245,-1.775394 -1.026734,-2.331542 -0.68449,-0.570408 -1.639922,-0.855612 -2.8663,-0.855612 -1.155076,0 -2.402843,0.242424 -3.743301,0.72727 -1.340458,0.470587 -2.737958,1.176467 -4.192498,2.11764 V 36.82374 c 1.725484,-0.598928 3.301236,-1.040994 4.727255,-1.326198 1.42602,-0.285205 2.802129,-0.427806 4.128327,-0.427806 z"
   id="path817-3-3" /><path
   style="fill:#ffffff;fill-opacity:1;stroke-width:0.684489"
   d="m 21.564692,59.968039 h 7.721897 v 7.614945 h -7.721897 z"
   id="path833-6-5" />
</g>
</svg>
