<?xml version="1.0" encoding="UTF-8" standalone="no"?>
<!-- Generator: Adobe Illustrator 16.0.0, SVG Export Plug-In . SVG Version: 6.00 Build 0)  -->

<svg
   version="1.1"
   id="Layer_1"
   x="0px"
   y="0px"
   width="97px"
   height="97px"
   viewBox="0 0 97 97"
   enable-background="new 0 0 97 97"
   xml:space="preserve"
   sodipodi:docname="changedfiles.svg"
   inkscape:version="1.2.2 (b0a8486541, 2022-12-01)"
   inkscape:export-filename="/home/hamed/dev/kde-git/icons/48-apps-kde_actions.png"
   inkscape:export-xdpi="50.150002"
   inkscape:export-ydpi="50.150002"
   xmlns:inkscape="http://www.inkscape.org/namespaces/inkscape"
   xmlns:sodipodi="http://sodipodi.sourceforge.net/DTD/sodipodi-0.dtd"
   xmlns="http://www.w3.org/2000/svg"
   xmlns:svg="http://www.w3.org/2000/svg"
   xmlns:rdf="http://www.w3.org/1999/02/22-rdf-syntax-ns#"
   xmlns:cc="http://creativecommons.org/ns#"
   xmlns:dc="http://purl.org/dc/elements/1.1/"><metadata
   id="metadata842"><rdf:RDF><cc:Work
       rdf:about=""><dc:format>image/svg+xml</dc:format><dc:type
         rdf:resource="http://purl.org/dc/dcmitype/StillImage" /><dc:title /></cc:Work></rdf:RDF></metadata><defs
   id="defs840" /><sodipodi:namedview
   pagecolor="#ffffff"
   bordercolor="#666666"
   borderopacity="1"
   objecttolerance="10"
   gridtolerance="10"
   guidetolerance="10"
   inkscape:pageopacity="0"
   inkscape:pageshadow="2"
   inkscape:window-width="1852"
   inkscape:window-height="1052"
   id="namedview838"
   showgrid="false"
   inkscape:zoom="7.9999999"
   inkscape:cx="8.4375001"
   inkscape:cy="50.3125"
   inkscape:window-x="68"
   inkscape:window-y="0"
   inkscape:window-maximized="1"
   inkscape:current-layer="g835"
   showguides="true"
   inkscape:guide-bbox="true"
   inkscape:pagecheckerboard="0"
   inkscape:showpageshadow="2"
   inkscape:deskcolor="#d1d1d1"><sodipodi:guide
     position="48.260038,17.67767"
     orientation="1,0"
     id="guide837"
     inkscape:locked="false" /><sodipodi:guide
     position="64.877047,48.790368"
     orientation="0,1"
     id="guide839"
     inkscape:locked="false" /></sodipodi:namedview>
<g
   id="g835"
   style="fill:#f1a13d;fill-opacity:1">
	<path
   id="path819"
   style="fill:#000000;fill-opacity:1"
   d="M 48.408203 2.5585938 C 46.893715 2.5585938 45.37865 3.1355228 44.222656 4.2910156 C 30.484215 18.025463 16.125835 32.385177 4.2871094 44.222656 C 1.9761232 46.535644 1.9761232 50.282762 4.2871094 52.59375 L 44.408203 92.710938 C 46.718191 95.02192 50.464356 95.021919 52.777344 92.710938 L 92.710938 52.779297 C 95.021918 50.468309 95.021918 46.719191 92.710938 44.408203 L 52.591797 4.2910156 C 51.436803 3.1355228 49.922697 2.5585936 48.408203 2.5585938 z M 47.585938 26.517578 C 52.052037 26.517578 55.455954 27.433304 57.798828 29.263672 C 60.141703 31.075737 61.3125 33.728605 61.3125 37.224609 C 61.3125 39.018375 60.956031 40.628951 60.242188 42.056641 C 59.528341 43.466024 58.312343 44.986207 56.591797 46.615234 L 54.833984 48.179688 C 53.589335 49.314513 52.775004 50.230241 52.390625 50.925781 C 52.006246 51.60302 51.814453 52.354069 51.814453 53.177734 L 51.814453 54.412109 L 41.902344 54.412109 L 41.902344 53.066406 C 41.902344 51.565505 42.20457 50.239067 42.808594 49.085938 C 43.412615 47.914501 44.684809 46.432434 46.625 44.638672 L 48.380859 43.044922 C 49.42417 42.09313 50.184262 41.197438 50.660156 40.355469 C 51.154358 39.5135 51.402344 38.672047 51.402344 37.830078 C 51.402344 36.548818 50.962561 35.549781 50.083984 34.835938 C 49.205407 34.103787 47.978413 33.738281 46.404297 33.738281 C 44.921696 33.738281 43.320159 34.049551 41.599609 34.671875 C 39.879063 35.275895 38.085726 36.182581 36.21875 37.390625 L 36.21875 28.769531 C 38.433498 28.000776 40.456741 27.432482 42.287109 27.066406 C 44.117482 26.700335 45.883691 26.517578 47.585938 26.517578 z M 71.783203 33.550781 C 75.262685 33.550781 77.914932 34.263438 79.740234 35.689453 C 81.565537 37.101211 82.478516 39.168886 82.478516 41.892578 C 82.478516 43.290075 82.200679 44.545909 81.644531 45.658203 C 81.088385 46.756236 80.139284 47.93983 78.798828 49.208984 L 77.429688 50.427734 C 76.459994 51.311865 75.826806 52.02452 75.527344 52.566406 C 75.22788 53.094033 75.078125 53.678605 75.078125 54.320312 L 75.078125 55.283203 L 67.355469 55.283203 L 67.355469 54.234375 C 67.355469 53.065041 67.58996 52.031205 68.060547 51.132812 C 68.531131 50.220162 69.523579 49.065465 71.035156 47.667969 L 72.404297 46.427734 C 73.217126 45.686206 73.808923 44.988 74.179688 44.332031 C 74.564711 43.676065 74.755859 43.01925 74.755859 42.363281 C 74.755859 41.36507 74.414956 40.587396 73.730469 40.03125 C 73.045979 39.460844 72.089657 39.175781 70.863281 39.175781 C 69.708207 39.175781 68.459595 39.419451 67.119141 39.904297 C 65.778685 40.374882 64.382272 41.080313 62.927734 42.021484 L 62.927734 35.304688 C 64.653216 34.70576 66.22828 34.263718 67.654297 33.978516 C 69.080313 33.693311 70.457007 33.550781 71.783203 33.550781 z M 25.992188 35.070312 C 29.471652 35.070312 32.123925 35.782977 33.949219 37.208984 C 35.774512 38.620738 36.6875 40.688429 36.6875 43.412109 C 36.6875 44.809602 36.409658 46.063491 35.853516 47.175781 C 35.297368 48.27381 34.348264 49.457416 33.007812 50.726562 L 31.638672 51.947266 C 30.668984 52.831393 30.035792 53.54405 29.736328 54.085938 C 29.436864 54.613559 29.287109 55.198135 29.287109 55.839844 L 29.287109 56.802734 L 21.564453 56.802734 L 21.564453 55.753906 C 21.564453 54.584576 21.800903 53.550731 22.271484 52.652344 C 22.74207 51.739698 23.732566 50.584994 25.244141 49.1875 L 26.613281 47.947266 C 27.426106 47.205736 28.017907 46.505578 28.388672 45.849609 C 28.773691 45.193647 28.964844 44.538781 28.964844 43.882812 C 28.964844 42.884605 28.623936 42.106929 27.939453 41.550781 C 27.254969 40.980379 26.298632 40.695312 25.072266 40.695312 C 23.917196 40.695312 22.67053 40.937029 21.330078 41.421875 C 19.989626 41.892462 18.591247 42.599849 17.136719 43.541016 L 17.136719 36.824219 C 18.862191 36.225291 20.437274 35.783251 21.863281 35.498047 C 23.289295 35.212842 24.665996 35.070312 25.992188 35.070312 z M 67.355469 58.449219 L 75.078125 58.449219 L 75.078125 66.064453 L 67.355469 66.064453 L 67.355469 58.449219 z M 41.902344 58.476562 L 51.814453 58.476562 L 51.814453 68.25 L 41.902344 68.25 L 41.902344 58.476562 z M 21.564453 59.96875 L 29.287109 59.96875 L 29.287109 67.582031 L 21.564453 67.582031 L 21.564453 59.96875 z " />
</g>
</svg>
