<?xml version="1.0" encoding="UTF-8" standalone="no"?>
<svg
   enable-background="new 0 0 96 96"
   height="96px"
   id="tag"
   version="1.1"
   viewBox="0 0 96 96"
   width="96px"
   xml:space="preserve"
   sodipodi:docname="sc-actions-git-tag.svg"
   inkscape:version="1.2.2 (b0a8486541, 2022-12-01)"
   xmlns:inkscape="http://www.inkscape.org/namespaces/inkscape"
   xmlns:sodipodi="http://sodipodi.sourceforge.net/DTD/sodipodi-0.dtd"
   xmlns="http://www.w3.org/2000/svg"
   xmlns:svg="http://www.w3.org/2000/svg"><defs
     id="defs1902" /><sodipodi:namedview
     id="namedview1900"
     pagecolor="#ffffff"
     bordercolor="#000000"
     borderopacity="0.25"
     inkscape:showpageshadow="2"
     inkscape:pageopacity="0.0"
     inkscape:pagecheckerboard="0"
     inkscape:deskcolor="#d1d1d1"
     showgrid="false"
     inkscape:zoom="7.7395833"
     inkscape:cx="48"
     inkscape:cy="48"
     inkscape:window-width="1852"
     inkscape:window-height="1052"
     inkscape:window-x="68"
     inkscape:window-y="0"
     inkscape:window-maximized="1"
     inkscape:current-layer="tag" /><path
     d="M12,12h33.941l37.256,37.077c1.586,1.586,1.637,3.93,0.117,5.45L54.912,82.885c-1.561,1.56-4.123,1.512-5.715-0.08  L12.056,45.83L11.833,12 M4,4l0.06,45.137L43.54,88.528c4.689,4.688,12.341,4.702,17.029,0.013l28.402-28.424  c4.689-4.688,4.57-11.998-0.117-16.687L49.256,4H4L4,4z"
     id="path1895"
     style="fill:#ffffff;fill-opacity:1" /><path
     d="M34,32c1.103,0,2,0.897,2,2s-0.897,2-2,2s-2-0.897-2-2S32.897,32,34,32 M34,24c-5.523,0-10,4.477-10,10s4.477,10,10,10  s10-4.477,10-10S39.523,24,34,24L34,24z"
     id="path1897"
     style="fill:#ffffff;fill-opacity:1" /></svg>
