<?xml version="1.0" encoding="UTF-8" standalone="no"?>
<svg
   width="480"
   height="480"
   viewBox="0 0 127 127"
   version="1.1"
   id="svg8"
   sodipodi:docname="sc-actions-git-fetch.svg"
   inkscape:version="1.1.2 (0a00cf5339, 2022-02-04)"
   xmlns:inkscape="http://www.inkscape.org/namespaces/inkscape"
   xmlns:sodipodi="http://sodipodi.sourceforge.net/DTD/sodipodi-0.dtd"
   xmlns="http://www.w3.org/2000/svg"
   xmlns:svg="http://www.w3.org/2000/svg"
   xmlns:rdf="http://www.w3.org/1999/02/22-rdf-syntax-ns#"
   xmlns:cc="http://creativecommons.org/ns#"
   xmlns:dc="http://purl.org/dc/elements/1.1/">
  <sodipodi:namedview
     id="namedview8"
     pagecolor="#ffffff"
     bordercolor="#666666"
     borderopacity="1.0"
     inkscape:pageshadow="2"
     inkscape:pageopacity="0.0"
     inkscape:pagecheckerboard="0"
     showgrid="false"
     inkscape:zoom="1.3416667"
     inkscape:cx="239.62733"
     inkscape:cy="418.88199"
     inkscape:window-width="1520"
     inkscape:window-height="871"
     inkscape:window-x="80"
     inkscape:window-y="0"
     inkscape:window-maximized="1"
     inkscape:current-layer="save" />
  <defs
     id="defs2" />
  <metadata
     id="metadata5">
    <rdf:RDF>
      <cc:Work
         rdf:about="">
        <dc:format>image/svg+xml</dc:format>
        <dc:type
           rdf:resource="http://purl.org/dc/dcmitype/StillImage" />
        <dc:title />
      </cc:Work>
    </rdf:RDF>
  </metadata>
  <g
     style="fill:#ffffff;fill-opacity:1"
     transform="matrix(5.0303447,0,0,5.0303447,3.1358636,8.1662083)"
     id="save">
    <path
       id="path3"
       style="fill:#ffffff;fill-opacity:1;stroke-width:19.0123"
       transform="matrix(0.05259746,0,0,0.05259746,-0.62338941,-1.6233894)"
       d="m 240,30.865234 c -20.91356,0 -36.12416,17.109877 -38.02539,38.023438 -3.80247,43.728348 0,133.085938 0,133.085938 h -76.04883 c -15.20986,0 -24.71515,15.20979 -15.20898,26.61719 l 114.07422,117.87695 c 7.60493,9.50616 22.81303,9.50616 30.41796,0 L 369.2832,226.69141 c 9.50617,-9.50617 8.8e-4,-24.7168 -15.20898,-24.7168 h -76.04883 c 0,0 3.80247,-87.45635 0,-133.085938 C 276.12416,47.975111 260.91356,30.865234 240,30.865234 Z" />
    <path
       id="path5"
       style="fill:#ffffff;fill-opacity:1;stroke-width:19.0123"
       d="M 106.91406 392.09766 C 86.000504 392.09766 68.888672 409.20949 68.888672 430.12305 C 68.888672 441.53044 76.494947 449.13477 87.902344 449.13477 L 155.04688 449.13477 L 155.04688 392.09766 L 106.91406 392.09766 z M 196.41211 392.09766 L 196.41211 449.13477 L 277.43555 449.13477 L 277.43555 392.09766 L 196.41211 392.09766 z M 318.80078 392.09766 L 318.80078 449.13477 L 392.09766 449.13477 C 403.50505 449.13477 411.11133 441.53044 411.11133 430.12305 C 411.11133 409.20949 393.9995 392.09766 373.08594 392.09766 L 318.80078 392.09766 z "
       transform="matrix(0.05259746,0,0,0.05259746,-0.62338941,-1.6233894)" />
  </g>
</svg>
