<?xml version="1.0" encoding="UTF-8" standalone="no"?>
<svg
   id="Layer_1"
   style="enable-background:new 0 0 64 64;"
   version="1.1"
   viewBox="0 0 64 64"
   xml:space="preserve"
   sodipodi:docname="sc-actions-git-branch.svg"
   inkscape:version="1.1.2 (0a00cf5339, 2022-02-04)"
   xmlns:inkscape="http://www.inkscape.org/namespaces/inkscape"
   xmlns:sodipodi="http://sodipodi.sourceforge.net/DTD/sodipodi-0.dtd"
   xmlns="http://www.w3.org/2000/svg"
   xmlns:svg="http://www.w3.org/2000/svg"
   xmlns:rdf="http://www.w3.org/1999/02/22-rdf-syntax-ns#"
   xmlns:cc="http://creativecommons.org/ns#"
   xmlns:dc="http://purl.org/dc/elements/1.1/"><metadata
     id="metadata17"><rdf:RDF><cc:Work
         rdf:about=""><dc:format>image/svg+xml</dc:format><dc:type
           rdf:resource="http://purl.org/dc/dcmitype/StillImage" /></cc:Work></rdf:RDF></metadata><defs
     id="defs15" /><sodipodi:namedview
     pagecolor="#ffffff"
     bordercolor="#666666"
     borderopacity="1"
     objecttolerance="10"
     gridtolerance="10"
     guidetolerance="10"
     inkscape:pageopacity="0"
     inkscape:pageshadow="2"
     inkscape:window-width="1402"
     inkscape:window-height="849"
     id="namedview13"
     showgrid="false"
     inkscape:zoom="10.429825"
     inkscape:cx="26.222875"
     inkscape:cy="20.422203"
     inkscape:window-x="126"
     inkscape:window-y="12"
     inkscape:window-maximized="0"
     inkscape:current-layer="Layer_1"
     showguides="true"
     inkscape:guide-bbox="true"
     inkscape:pagecheckerboard="0"><sodipodi:guide
       position="34.228762,28.763666"
       orientation="0,1"
       id="guide825"
       inkscape:locked="false" /></sodipodi:namedview><style
     type="text/css"
     id="style2">
	.st0{fill:#134563;}
</style><path
     class="st0"
     d="m 22.375274,22.245229 c -5.570452,0 -10.001495,-4.431042 -10.001495,-10.001494 0,-5.5704521 4.431043,-10.0014936 10.001495,-10.0014936 5.570452,0 10.001494,4.4310415 10.001494,10.0014936 0,5.443851 -4.431042,10.001494 -10.001494,10.001494 z m 0,-16.3315532 c -3.418232,0 -6.203458,2.7852261 -6.203458,6.2034582 0,3.418232 2.785226,6.203458 6.203458,6.203458 3.418232,0 6.203458,-2.785226 6.203458,-6.203458 0,-3.2916309 -2.785226,-6.2034582 -6.203458,-6.2034582 z"
     id="Fill-61"
     style="fill:#ffffff;fill-opacity:1;stroke-width:1.26601"
     inkscape:connector-curvature="0" /><path
     class="st0"
     d="m 48.885702,26.859595 c -5.832483,0 -10.471958,-4.639475 -10.471958,-10.471958 0,-5.832483 4.639475,-10.4719585 10.471958,-10.4719585 5.832483,0 10.471958,4.6394755 10.471958,10.4719585 0,5.832483 -4.772031,10.471958 -10.471958,10.471958 z m 0,-16.967223 c -3.579024,0 -6.495265,2.916241 -6.495265,6.495265 0,3.579024 2.916241,6.495265 6.495265,6.495265 3.579024,0 6.495265,-2.916241 6.495265,-6.495265 0,-3.579024 -2.916241,-6.495265 -6.495265,-6.495265 z"
     id="Fill-62"
     style="fill:#ffffff;fill-opacity:1;stroke:none;stroke-width:1.32556;stroke-opacity:1"
     inkscape:connector-curvature="0" /><path
     class="st0"
     d="m 22.259968,61.574758 c -5.885617,0 -10.567357,-4.68174 -10.567357,-10.567357 0,-5.885617 4.68174,-10.567357 10.567357,-10.567357 5.885617,0 10.567357,4.68174 10.567357,10.567357 0,5.885617 -4.815504,10.567357 -10.567357,10.567357 z m 0,-17.121794 c -3.611628,0 -6.554437,2.942809 -6.554437,6.554437 0,3.611628 2.942809,6.554437 6.554437,6.554437 3.611628,0 6.554437,-2.942809 6.554437,-6.554437 0,-3.611628 -2.942809,-6.554437 -6.554437,-6.554437 z"
     id="Fill-63"
     style="fill:#ffffff;fill-opacity:1;stroke-width:1.33764"
     inkscape:connector-curvature="0" /><path
     style="fill:none;stroke:#ffffff;stroke-width:4.80019;stroke-linecap:butt;stroke-linejoin:miter;stroke-miterlimit:4;stroke-dasharray:none;stroke-opacity:1"
     d="M 22.395289,18.979851 V 43.445692"
     id="path833"
     inkscape:connector-curvature="0" /><path
     style="fill:none;stroke:#ffffff;stroke-width:4.9933;stroke-linecap:butt;stroke-linejoin:miter;stroke-miterlimit:4;stroke-dasharray:none;stroke-opacity:1"
     d="m 22.372045,44.41086 c 0,0 -0.0262,-10.111738 9.491767,-10.111738 9.517967,0 3.561193,0.05184 11.041966,0.05184 7.480771,0 6.059911,-9.961808 6.059911,-9.961808"
     id="path835"
     inkscape:connector-curvature="0"
     sodipodi:nodetypes="czzc" /></svg>
