<?xml version="1.0" encoding="UTF-8"?>
<svg enable-background="new 0 0 64 64" version="1.1" viewBox="0 0 64 64" xml:space="preserve" xmlns="http://www.w3.org/2000/svg">

  <defs>
    <style id="current-color-scheme" type="text/css">
      .ColorScheme-Text { color:#565656; } .ColorScheme-Highlight { color:#5294e2; }
    </style>
  
  
  
  
</defs>

<path style="fill:currentColor" class="ColorScheme-Text" d="m22.342 2.3379a7.9887 7.9126 0 0 0-7.9902 7.9141 7.9887 7.9126 0 0 0 6.291 7.7109c6.1e-5 0.009003 0.001831 0.031819 0.001953 0.042968v29.289c-3.5525 0.7781-6.1699 3.9085-6.1699 7.7129 0 4.4 3.5004 7.8984 7.9004 7.8984s7.9004-3.4984 7.9004-7.8984c0-3.7042-2.5983-6.8878-6.1309-7.6992v-18.922c0.32921 0.3848 0.69089 0.75331 1.0898 1.0977 1.626 1.4035 3.8815 2.3438 6.6348 2.3438 9.5132 0 3.5657-0.0625 11.027-0.0625 1.3953 0 2.0926 0.44423 2.7363 1.2402 0.64377 0.796 1.1161 2.0465 1.373 3.3887 0.35008 1.8289 0.31751 3.7059 0.26172 4.7305-3.6096 0.73608-6.2812 3.8939-6.2812 7.7383 0 4.4 3.5004 7.9004 7.9004 7.9004 4.4 0 7.8984-3.5004 7.8984-7.9004 0-3.7359-2.5942-6.8232-6.0098-7.6699 0.064748-1.2294 0.079331-3.308-0.33203-5.457-0.32222-1.6833-0.8965-3.4585-2.0879-4.9316s-3.1188-2.5391-5.459-2.5391c-7.4813 0-1.5296 0.0625-11.027 0.0625-1.9995 0-3.3052-0.59435-4.3477-1.4941-1.0425-0.89979-1.804-2.1753-2.3242-3.5273-0.96221-2.5007-1.045-4.9902-1.0527-5.3652-8e-6 -4.11e-4 9e-6 -0.001547 0-0.001953a7.9887 7.9126 0 0 0 6.1855-7.6875 7.9887 7.9126 0 0 0-7.9883-7.9141zm26.545 41.625c2.7 0 4.8984 2.2004 4.8984 4.9004 0 2.7-2.1984 4.9004-4.8984 4.9004-2.7 0-4.9004-2.2004-4.9004-4.9004 0-2.7 2.2004-4.9004 4.9004-4.9004zm-26.512 6.2441c2.7 0 4.9004 2.2004 4.9004 4.9004 0 2.6-2.2004 4.9004-4.9004 4.9004s-4.9004-2.2004-4.9004-4.9004 2.2004-4.9004 4.9004-4.9004z" />



</svg>
