<?xml version="1.0" encoding="UTF-8"?>
<svg width="24" height="24" fill="none" version="1.1" viewBox="0 0 24 24" xmlns="http://www.w3.org/2000/svg">
 <path d="m3 6.25c0-1.7949 1.4551-3.25 3.25-3.25h11.5c1.7949 0 3.25 1.4551 3.25 3.25v11.5c0 1.7949-1.4551 3.25-3.25 3.25h-11.5c-1.7949 0-3.25-1.4551-3.25-3.25v-11.5zm3.25-1.75c-0.9665 0-1.75 0.7835-1.75 1.75v2.25h4v-4h-2.25zm-1.75 5.5v4h4v-4h-4zm5.5 0v4h4v-4h-4zm5.5 0v4h4v-4h-4zm-1.5 5.5h-4v4h4v-4zm1.5 4h2.25c0.9665 0 1.75-0.7835 1.75-1.75v-2.25h-4v4zm0-11h4v-2.25c0-0.9665-0.7835-1.75-1.75-1.75h-2.25v4zm-1.5-4h-4v4h4v-4zm-9.5 11v2.25c0 0.9665 0.7835 1.75 1.75 1.75h2.25v-4h-4z" style="fill:currentColor"  />
</svg>
