<?xml version="1.0" encoding="UTF-8"?>
<svg enable-background="new 0 0 64 64" version="1.1" viewBox="0 0 64 64" xml:space="preserve" xmlns="http://www.w3.org/2000/svg" xmlns:cc="http://creativecommons.org/ns#" xmlns:dc="http://purl.org/dc/elements/1.1/" xmlns:rdf="http://www.w3.org/1999/02/22-rdf-syntax-ns#"><metadata>

		<rdf:RDF><cc:Work rdf:about=""><dc:format>image/svg+xml</dc:format><dc:type rdf:resource="http://purl.org/dc/dcmitype/StillImage"/></cc:Work></rdf:RDF></metadata>

<defs>
	<style id="current-color-scheme" type="text/css">
	.ColorScheme-Text { color:#565656; } .ColorScheme-Highlight { color:#5294e2; }
</style>
</defs>

<g>
	<g id="Icon-Share-Google" transform="translate(280 380)">
	<path style="fill:currentColor" class="ColorScheme-Text" d="m-264.2-339.9c-4.4 0-7.9-3.5-7.9-7.9s3.5-7.9 7.9-7.9 7.9 3.5 7.9 7.9c0 4.3-3.5 7.9-7.9 7.9zm0-12.9c-2.7 0-4.9 2.2-4.9 4.9s2.2 4.9 4.9 4.9 4.9-2.2 4.9-4.9c0-2.6-2.2-4.9-4.9-4.9z"/>
	<path style="fill:currentColor" class="ColorScheme-Text" d="m-232.1-356c-4.4 0-7.9-3.5-7.9-7.9s3.5-7.9 7.9-7.9 7.9 3.5 7.9 7.9-3.6 7.9-7.9 7.9zm0-12.8c-2.7 0-4.9 2.2-4.9 4.9s2.2 4.9 4.9 4.9 4.9-2.2 4.9-4.9-2.2-4.9-4.9-4.9z"/>
	<path style="fill:currentColor" class="ColorScheme-Text" d="m-232.1-323.9c-4.4 0-7.9-3.5-7.9-7.9s3.5-7.9 7.9-7.9 7.9 3.5 7.9 7.9-3.6 7.9-7.9 7.9zm0-12.8c-2.7 0-4.9 2.2-4.9 4.9s2.2 4.9 4.9 4.9 4.9-2.2 4.9-4.9-2.2-4.9-4.9-4.9z"/>
	<polyline style="fill:currentColor" class="ColorScheme-Text" points="-238.6 -333.2 -259.2 -343.5 -257.8 -346.4 -237.1 -336.1 -238.6 -333.2"/>
	<polyline style="fill:currentColor" class="ColorScheme-Text" points="-257.8 -349.3 -259.2 -352.1 -238.6 -362.4 -237.1 -359.6 -257.8 -349.3"/>
	</g>
</g>

</svg>
