<?xml version="1.0" encoding="UTF-8"?>
<svg enable-background="new 0 0 64 64" version="1.1" viewBox="0 0 64 64" xml:space="preserve" xmlns="http://www.w3.org/2000/svg" xmlns:cc="http://creativecommons.org/ns#" xmlns:dc="http://purl.org/dc/elements/1.1/" xmlns:rdf="http://www.w3.org/1999/02/22-rdf-syntax-ns#">

	<defs>
	<style id="current-color-scheme" type="text/css">
	.ColorScheme-Text { color:#565656; } .ColorScheme-Highlight { color:#5294e2; }
</style>
</defs>
<path style="fill:currentColor" class="ColorScheme-Text" transform="scale(1,-1)" d="m22.375-2.3379c-4.4 0-7.9004-3.5004-7.9004-7.9004 0-3.8039 2.618-6.9324 6.1699-7.7109v-28.184c-3.542-0.7857-6.1484-3.912-6.1484-7.709 0-4.4 3.4984-7.9004 7.8984-7.9004 4.3 0 7.9004 3.5004 7.9004 7.9004 0 3.7676-2.5663 6.874-6.0664 7.6895 0.11205 1.0695 0.36684 2.6505 0.96875 4.2148 0.52023 1.352 1.2817 2.6256 2.3242 3.5254s2.3482 1.4941 4.3477 1.4941c9.4978 0 3.5465-0.0625 11.027-0.0625 2.3402 0 4.2676 1.0679 5.459 2.541 1.1914 1.4731 1.7657 3.2483 2.0879 4.9316 0.50316 2.6286 0.37239 5.1114 0.28906 6.0977a7.9887 7.9126 0 0 1 5.5801 7.5332 7.9887 7.9126 0 0 1-7.9883 7.9141 7.9887 7.9126 0 0 1-7.9883-7.9141 7.9887 7.9126 0 0 1 6.9082-7.8359c0.0624-0.80295 0.17451-2.9821-0.23828-5.1387-0.25691-1.3422-0.72928-2.5907-1.373-3.3867-0.64377-0.796-1.341-1.2422-2.7363-1.2422-7.4612 0-1.5141 0.0625-11.027 0.0625-2.7533 0-5.0087-0.94028-6.6348-2.3438-0.39895-0.34434-0.76063-0.71285-1.0898-1.0977v18.924c3.5325 0.81141 6.1309 3.9931 6.1309 7.6973 0 4.4-3.5004 7.9004-7.9004 7.9004zm0-2.9004c2.7-1e-7 4.9004-2.3004 4.9004-4.9004 0-2.7-2.2004-4.8984-4.9004-4.8984s-4.9004 2.1984-4.9004 4.8984c0 2.7 2.2004 4.9004 4.9004 4.9004zm0.019531-43.703c2.7 0 4.9004-2.2004 4.9004-4.9004s-2.2004-4.9004-4.9004-4.9004c-2.7 0-4.8984 2.2004-4.8984 4.9004s2.1984 4.9004 4.8984 4.9004z"/></svg>
