<?xml version="1.0" encoding="UTF-8"?>
<svg enable-background="new 0 0 64 64" version="1.1" viewBox="0 0 64 64" xml:space="preserve" xmlns="http://www.w3.org/2000/svg" xmlns:cc="http://creativecommons.org/ns#" xmlns:dc="http://purl.org/dc/elements/1.1/" xmlns:rdf="http://www.w3.org/1999/02/22-rdf-syntax-ns#">


  <defs>
    <style id="current-color-scheme" type="text/css">
      .ColorScheme-Text { color:#565656; } .ColorScheme-Highlight { color:#5294e2; }
    </style>
  </defs>
  <path style="fill:currentColor" class="ColorScheme-Text" d="m22.373 2.2422c-5.5696 0-10 4.4304-10 10 0 4.7476 3.2212 8.6651 7.6211 9.7188v19.369c-4.3888 1.0612-7.5996 4.973-7.5996 9.7129 0 5.5696 4.4304 10 10 10 5.443 0 10-4.4304 10-10 0-4.1443-2.4538-7.6567-6.0039-9.1836 0.39632-0.35077 0.80307-0.70967 1.2363-1.0859 2.1411-1.8595 4.8769-3.9862 5.4121-4.2715 0.67681-0.36073 2.705-0.94771 4.7305-1.4492 2.0255-0.50151 4.0212-0.899 5.7324-1.8047 1.928-1.0204 3.4046-2.7217 4.8398-4.3008 0.94809-1.0431 1.6184-1.8409 2.0645-2.3809 4.6331-0.83044 8.2461-4.8835 8.2461-9.8418 0-5.5696-4.4304-10-10-10-5.5696 0-10 4.4304-10 10 0 4.0592 2.3547 7.511 5.7871 9.0859-1.2954 1.3883-2.9632 2.8603-3.2715 3.0234-0.54154 0.28661-2.5626 0.86868-4.5996 1.373-2.037 0.50436-4.1166 0.9494-5.8789 1.8887-1.7768 0.94702-3.8329 2.7324-5.8945 4.5254v-14.678c4.3789-1.0931 7.5781-5.0759 7.5781-9.7012 0-5.5696-4.4304-10-10-10zm0 3.6699c3.4177 0 6.2031 2.912 6.2031 6.2031 0 3.4177-2.7854 6.2031-6.2031 6.2031-3.4177 0-6.2012-2.7854-6.2012-6.2031 0-3.4177 2.7835-6.2031 6.2012-6.2031zm26.279 4.6094c3.4177 0 6.2031 2.7854 6.2031 6.2031 0 3.4177-2.7854 6.2031-6.2031 6.2031-3.4177 0-6.2031-2.7854-6.2031-6.2031 0-3.4177 2.7854-6.2031 6.2031-6.2031zm-26.258 34.318c3.4177 0 6.2031 2.7854 6.2031 6.2031 0 3.4177-2.7854 6.2012-6.2031 6.2012-3.4177 0-6.2012-2.7835-6.2012-6.2012 0-3.4177 2.7835-6.2031 6.2012-6.2031z"/>





</svg>
