<?xml version="1.0" encoding="UTF-8" standalone="no"?>
<svg
   width="48"
   height="48"
   version="1.1"
   viewBox="0 0 12.7 12.7"
   id="svg4"
   sodipodi:docname="submodule.svg"
   inkscape:version="1.2.2 (b0a8486541, 2022-12-01)"
   xmlns:inkscape="http://www.inkscape.org/namespaces/inkscape"
   xmlns:sodipodi="http://sodipodi.sourceforge.net/DTD/sodipodi-0.dtd"
   xmlns="http://www.w3.org/2000/svg"
   xmlns:svg="http://www.w3.org/2000/svg">
   <defs>
      <style id="current-color-scheme" type="text/css">
         .ColorScheme-Text { color:#565656; } .ColorScheme-Highlight { color:#5294e2; }
      </style>
   </defs>

  <path
     d="m5.2938 0.93068a1.5376 1.5376 0 0 0-1.5376 1.5376 1.5376 1.5376 0 0 0 0.13027 0.61673h-2.8748v2.8621a1.5376 1.5376 0 0 1 0.50728-0.097699 1.5376 1.5376 0 0 1 1.5376 1.5376 1.5376 1.5376 0 0 1-1.5376 1.5376 1.5376 1.5376 0 0 1-0.50728-0.097699v2.8836h2.8422a1.5376 1.5376 0 0 1-0.083664-0.47348 1.5376 1.5376 0 0 1 1.5376-1.5376 1.5376 1.5376 0 0 1 1.5376 1.5376 1.5376 1.5376 0 0 1-0.083664 0.47348h2.8756v-2.9282a1.5376 1.5376 0 0 0 0.63374 0.13767 1.5376 1.5376 0 0 0 1.5376-1.5376 1.5376 1.5376 0 0 0-1.5376-1.5376 1.5376 1.5376 0 0 0-0.63374 0.13769v-2.8975h-2.9361a1.5376 1.5376 0 0 0 0.13031-0.61673 1.5376 1.5376 0 0 0-1.5376-1.5376z"
     fill="none"
     stroke-width=".40206"
     class="ColorScheme-Text"
     style="stroke:currentColor;stroke-width:0.64029167;stroke-dasharray:none" />
</svg>
