<?xml version="1.0" encoding="UTF-8"?>
<svg width="480" height="480" version="1.1" viewBox="0 0 127 127" xmlns="http://www.w3.org/2000/svg" xmlns:cc="http://creativecommons.org/ns#" xmlns:dc="http://purl.org/dc/elements/1.1/" xmlns:rdf="http://www.w3.org/1999/02/22-rdf-syntax-ns#">
 <defs>
  <style id="current-color-scheme" type="text/css">
   .ColorScheme-Text { color:#565656; } .ColorScheme-Highlight { color:#5294e2; }
  </style>
 </defs>
 <path style="fill:currentColor" class="ColorScheme-Text" d="m63.497 8.1664c-5.5323 0.0011365-9.5554 4.5274-10.058 10.06-1.0061 11.569 0 35.213 0 35.213h-20.121c-4.0242 0-6.5391 4.0244-4.024 7.0425l30.181 31.188c2.0121 2.5151 6.036 2.5151 8.0481 0l30.181-31.691c2.5151-2.5151 1.63e-4 -6.5397-4.024-6.5397h-20.121s1.0061-23.139 0-35.213c-0.50295-5.5327-4.5262-10.059-10.058-10.06h-0.002067zm-32.778 92.41a9.4851 9.2656 0 0 0-9.4852 9.2656 9.4851 9.2656 0 0 0 9.4852 9.2656 9.4851 9.2656 0 0 0 9.4847-9.2656 9.4851 9.2656 0 0 0-9.4847-9.2656zm32.781 0a9.4851 9.2656 0 0 0-9.4852 9.2656 9.4851 9.2656 0 0 0 9.4852 9.2656 9.4851 9.2656 0 0 0 9.4852-9.2656 9.4851 9.2656 0 0 0-9.4852-9.2656zm32.781 0a9.4851 9.2656 0 0 0-9.4847 9.2656 9.4851 9.2656 0 0 0 9.4847 9.2656 9.4851 9.2656 0 0 0 9.4852-9.2656 9.4851 9.2656 0 0 0-9.4852-9.2656z" stroke-width="5.0302"/>
</svg>
