<?xml version="1.0" encoding="UTF-8"?>
<svg width="480" height="480" version="1.1" viewBox="0 0 127 127" xmlns="http://www.w3.org/2000/svg" xmlns:cc="http://creativecommons.org/ns#" xmlns:dc="http://purl.org/dc/elements/1.1/" xmlns:rdf="http://www.w3.org/1999/02/22-rdf-syntax-ns#">

  <defs>
    <style id="current-color-scheme" type="text/css">
      .ColorScheme-Text { color:#565656; } .ColorScheme-Highlight { color:#5294e2; }
    </style>
  </defs>
  <path style="fill:currentColor" class="ColorScheme-Text" d="m11.514 10.222c-3.9017 0-6.503 2.6012-6.503 6.503 0 7.1531 5.8528 13.005 13.006 13.005h91.04c7.1531 0 13.006-5.8523 13.006-13.005 0-3.9017-2.6013-6.503-6.503-6.503h-104.05zm52.034 25.967c-2.1777 0-4.3551 1.2532-5.8069 3.76l-43.553 62.169c-3.6295 6.0163-2.38e-4 14.038 5.8069 14.038h87.107c5.8071 0 9.4364-8.0218 5.8069-13.035l-43.553-63.171c-1.4518-2.5068-3.6297-3.76-5.8074-3.76z" stroke-width="8.5315"/>
</svg>
