<?xml version="1.0" encoding="UTF-8"?>
<svg width="480" height="480" version="1.1" viewBox="0 0 127 127" xmlns="http://www.w3.org/2000/svg" xmlns:cc="http://creativecommons.org/ns#" xmlns:dc="http://purl.org/dc/elements/1.1/" xmlns:rdf="http://www.w3.org/1999/02/22-rdf-syntax-ns#">
 <defs>
  <style id="current-color-scheme" type="text/css">
   .ColorScheme-Text { color:#565656; } .ColorScheme-Highlight { color:#5294e2; }
  </style>
 </defs>

 <g style="fill:currentColor" class="ColorScheme-Text" transform="matrix(5.0303 0 0 5.0303 3.1359 8.1662)">
  <path d="m11.2 16.6c0.4 0.5 1.2 0.5 1.6 0l6-6.3c0.5-0.5 0-1.3-0.8-1.3h-4s0.2-4.6 0-7c-0.1-1.1-0.9-2-2-2s-1.9 0.9-2 2c-0.2 2.3 0 7 0 7h-4c-0.8 0-1.3 0.8-0.8 1.4z"/>
  <path d="m19 19h-14c-1.1 0-2 0.9-2 2 0 0.6 0.4 1 1 1h16c0.6 0 1-0.4 1-1 0-1.1-0.9-2-2-2z"/>
 </g>
</svg>
