<?xml version="1.0" encoding="UTF-8"?>
<!-- Generator: Adobe Illustrator 16.0.0, SVG Export Plug-In . SVG Version: 6.00 Build 0)  -->
<svg width="97px" height="97px" enable-background="new 0 0 97 97" version="1.1" viewBox="0 0 97 97" xml:space="preserve" xmlns="http://www.w3.org/2000/svg" xmlns:cc="http://creativecommons.org/ns#" xmlns:dc="http://purl.org/dc/elements/1.1/" xmlns:rdf="http://www.w3.org/1999/02/22-rdf-syntax-ns#">

  <defs>
    <style id="current-color-scheme" type="text/css">
      .ColorScheme-Text { color:#565656; } .ColorScheme-Highlight { color:#5294e2; }
    </style>
  </defs>

  <g style="fill:currentColor" class="ColorScheme-Text">
	<path d="m48.408 2.5586c-1.5145 0-3.0296 0.57693-4.1855 1.7324-13.738 13.734-28.097 28.094-39.936 39.932-2.311 2.313-2.311 6.0601 0 8.3711l40.121 40.117c2.31 2.311 6.0562 2.311 8.3691 0l39.934-39.932c2.311-2.311 2.311-6.0601 0-8.3711l-40.119-40.117c-1.155-1.1555-2.6691-1.7324-4.1836-1.7324zm-0.82226 23.959c4.4661 0 7.87 0.91573 10.213 2.7461 2.3429 1.8121 3.5137 4.4649 3.5137 7.9609 0 1.7938-0.35647 3.4043-1.0703 4.832-0.71385 1.4094-1.9298 2.9296-3.6504 4.5586l-1.7578 1.5645c-1.2446 1.1348-2.059 2.0506-2.4434 2.7461-0.38438 0.67724-0.57617 1.4283-0.57617 2.252v1.2344h-9.9121v-1.3457c0-1.5009 0.30223-2.8273 0.90625-3.9805 0.60402-1.1714 1.8762-2.6535 3.8164-4.4473l1.7559-1.5938c1.0433-0.95179 1.8034-1.8475 2.2793-2.6895 0.4942-0.84197 0.74219-1.6834 0.74219-2.5254 0-1.2813-0.43978-2.2803-1.3184-2.9941-0.87858-0.73215-2.1056-1.0977-3.6797-1.0977-1.4826 0-3.0841 0.31127-4.8047 0.93359-1.7205 0.60402-3.5139 1.5107-5.3809 2.7188v-8.6211c2.2147-0.76876 4.238-1.337 6.0684-1.7031 1.8304-0.36607 3.5966-0.54883 5.2988-0.54883zm24.197 7.0332c3.4795 0 6.1317 0.71266 7.957 2.1387 1.8253 1.4118 2.7383 3.4794 2.7383 6.2031 0 1.3975-0.27784 2.6533-0.83398 3.7656-0.55615 1.098-1.5052 2.2816-2.8457 3.5508l-1.3691 1.2188c-0.96969 0.88413-1.6029 1.5968-1.9023 2.1387-0.29946 0.52763-0.44922 1.1122-0.44922 1.7539v0.96289h-7.7227v-1.0488c0-1.1693 0.23449-2.2032 0.70508-3.1016 0.47058-0.91265 1.463-2.0673 2.9746-3.4648l1.3691-1.2402c0.81283-0.74153 1.4046-1.4397 1.7754-2.0957 0.38502-0.65597 0.57617-1.3128 0.57617-1.9688 0-0.99821-0.3409-1.7759-1.0254-2.332-0.68449-0.57041-1.6408-0.85547-2.8672-0.85547-1.1551 0-2.4037 0.24367-3.7441 0.72852-1.3405 0.47058-2.7369 1.176-4.1914 2.1172v-6.7168c1.7255-0.59893 3.3005-1.041 4.7266-1.3262 1.426-0.2852 2.8027-0.42774 4.1289-0.42774zm-45.791 1.5195c3.4795 0 6.1317 0.71266 7.957 2.1387 1.8253 1.4118 2.7383 3.4794 2.7383 6.2031 0 1.3975-0.27784 2.6514-0.83398 3.7637-0.55615 1.098-1.5053 2.2816-2.8457 3.5508l-1.3691 1.2207c-0.96969 0.88413-1.6029 1.5968-1.9023 2.1387-0.29946 0.52762-0.44922 1.1122-0.44922 1.7539v0.96289h-7.7227v-1.0488c0-1.1693 0.23645-2.2032 0.70703-3.1016 0.47059-0.91265 1.4611-2.0674 2.9727-3.4648l1.3691-1.2402c0.81282-0.74153 1.4046-1.4417 1.7754-2.0977 0.38502-0.65596 0.57617-1.3108 0.57617-1.9668 0-0.99821-0.34091-1.7759-1.0254-2.332-0.68448-0.5704-1.6408-0.85547-2.8672-0.85547-1.1551 0-2.4017 0.24172-3.7422 0.72656-1.3405 0.47059-2.7388 1.178-4.1934 2.1191v-6.7168c1.7255-0.59893 3.3006-1.041 4.7266-1.3262 1.426-0.2852 2.8027-0.42774 4.1289-0.42774zm41.363 23.379h7.7227v7.6152h-7.7227v-7.6152zm-25.453 0.027343h9.9121v9.7734h-9.9121v-9.7734zm-20.338 1.4922h7.7227v7.6133h-7.7227v-7.6133z" />
</g>
</svg>
