<?xml version="1.0" encoding="UTF-8"?>
<svg version="1.1" viewBox="0 0 32 32" xmlns="http://www.w3.org/2000/svg">


 <defs>
  <style id="current-color-scheme" type="text/css">
   .ColorScheme-Text { color:#565656; } .ColorScheme-Highlight { color:#5294e2; }
  </style>
 </defs>

  <path style="fill:currentColor" class="ColorScheme-Text" d="m6 0a3 3 0 0 0-3 3v26a3 3 0 0 0 3 3h20a3 3 0 0 0 3-3v-22a1 1 0 0 0-0.28906-0.71094l-6-6a1 1 0 0 0-0.71094-0.28906h-16zm0 2h15v4a2 2 0 0 0 2 2h4v21a1 1 0 0 1-1 1h-20a1 1 0 0 1-1-1v-26a1 1 0 0 1 1-1zm3.0293 12.615a0.69037 0.69037 0 0 0-0.41211 1.207c0.34587 0.30412 0.74328 0.57985 1.1797 0.82812l-0.49805 1.3945a0.69128 0.69128 0 0 0 0.65039 0.92188 0.69102 0.69102 0 0 0 0.65039-0.45898l0.45117-1.2676c0.41516 0.16043 0.85118 0.30056 1.3066 0.41602l-0.25 1.4434a0.6899 0.6899 0 0 0 0.56445 0.79688 0.66573 0.66573 0 0 0 0.11719 0.011719 0.69043 0.69043 0 0 0 0.67969-0.57422l0.24219-1.4121c0.43165 0.061814 0.8736 0.10355 1.3223 0.125v1.4004a0.69043 0.69043 0 0 0 0.69141 0.68945 0.69043 0.69043 0 0 0 0.68945-0.68945v-1.4004c0.44821-0.021407 0.89103-0.063308 1.3223-0.125l0.24414 1.4121a0.69043 0.69043 0 0 0 0.67969 0.57422 0.66573 0.66573 0 0 0 0.11719-0.011719 0.6899 0.6899 0 0 0 0.5625-0.79688l-0.24805-1.4453c0.45464-0.11534 0.89218-0.2539 1.3066-0.41406l0.45117 1.2676a0.6907 0.6907 0 0 0 0.65039 0.45898 0.69128 0.69128 0 0 0 0.65039-0.92188l-0.49805-1.3965c0.43549-0.24794 0.83443-0.52259 1.1797-0.82617a0.69057 0.69057 0 1 0-0.91211-1.0371c-1.3529 1.1894-3.6686 1.9004-6.1953 1.9004-2.5268 0-4.8424-0.711-6.1953-1.9004a0.69037 0.69037 0 0 0-0.5-0.16992z"/>
</svg>
